<svg xmlns="http://www.w3.org/2000/svg" width="400" height="300" viewBox="0 0 400 300">
  <defs>
    <linearGradient id="emeraldGradient" x1="0%" y1="0%" x2="100%" y2="100%">
      <stop offset="0%" style="stop-color:#34d399;stop-opacity:1" />
      <stop offset="50%" style="stop-color:#10b981;stop-opacity:1" />
      <stop offset="100%" style="stop-color:#3b82f6;stop-opacity:1" />
    </linearGradient>
  </defs>
  
  <!-- Background with gradient -->
  <rect width="400" height="300" fill="url(#emeraldGradient)" />
  
  <!-- Milk icon centered and scaled up -->
  <g transform="translate(200, 150)">
    <g transform="scale(3) translate(-12, -12)">
      <path d="M8 2h8" fill="none" stroke="white" stroke-width="2" stroke-linecap="round" stroke-linejoin="round" opacity="0.9"/>
      <path d="M9 2v2.789a4 4 0 0 1-.672 2.219l-.656.984A4 4 0 0 0 7 10.212V20a2 2 0 0 0 2 2h6a2 2 0 0 0 2-2v-9.789a4 4 0 0 0-.672-2.219l-.656-.984A4 4 0 0 1 15 4.788V2" fill="none" stroke="white" stroke-width="2" stroke-linecap="round" stroke-linejoin="round" opacity="0.9"/>
      <path d="M7 15a6.472 6.472 0 0 1 5 0 6.47 6.47 0 0 0 5 0" fill="none" stroke="white" stroke-width="2" stroke-linecap="round" stroke-linejoin="round" opacity="0.9"/>
    </g>
  </g>
</svg>